HIERARCHY
ROOT Hips
{
	OFFSET 0.053599 88.859886 3.107447
	CHANNELS 6 Xposition Yposition Zposition Zrotation Yrotation Xrotation 
	JOINT Spine
	{
		OFFSET -0.000000 8.814246 -2.080107
		CHANNELS 3 Zrotation Yrotation Xrotation
		JOINT Spine1
		{
			OFFSET 0.000000 8.844141 0.000000
			CHANNELS 3 Zrotation Yrotation Xrotation
			JOINT Spine2
			{
				OFFSET -0.000000 11.682268 0.000000
				CHANNELS 3 Zrotation Yrotation Xrotation
				JOINT Spine3
				{
					OFFSET 0.000000 11.746700 0.000000
					CHANNELS 3 Zrotation Yrotation Xrotation
					JOINT Neck
					{
						OFFSET -0.000000 17.658264 -0.000000
						CHANNELS 3 Zrotation Yrotation Xrotation
						JOINT Neck1
						{
							OFFSET -0.000000 5.101515 -0.000000
							CHANNELS 3 Zrotation Yrotation Xrotation
							JOINT Head
							{
								OFFSET 0.000000 5.101515 0.000000
								CHANNELS 3 Zrotation Yrotation Xrotation
								JOINT HeadEnd
								{
									OFFSET 0.000000 11.655085 0.000000
									CHANNELS 3 Zrotation Yrotation Xrotation
									End Site
									{
										OFFSET 0.000000 0.000000 0.000000
									}
								}
							}
						}
					}
					JOINT RightShoulder
					{
						OFFSET -2.625389 11.175210 0.000000
						CHANNELS 3 Zrotation Yrotation Xrotation
						JOINT RightArm
						{
							OFFSET -0.000000 10.434715 -0.000000
							CHANNELS 3 Zrotation Yrotation Xrotation
							JOINT RightForeArm
							{
								OFFSET -0.000000 29.628420 0.000000
								CHANNELS 3 Zrotation Yrotation Xrotation
								JOINT RightHand
								{
									OFFSET -0.000000 22.857611 0.000000
									CHANNELS 3 Zrotation Yrotation Xrotation
									JOINT RightHandThumb1
									{
										OFFSET -2.867323 3.959563 2.944291
										CHANNELS 3 Zrotation Yrotation Xrotation
										JOINT RightHandThumb2
										{
											OFFSET 0.000000 3.350399 0.000000
											CHANNELS 3 Zrotation Yrotation Xrotation
											JOINT RightHandThumb3
											{
												OFFSET 0.000000 3.756509 -0.000000
												CHANNELS 3 Zrotation Yrotation Xrotation
												JOINT RightHandThumb4
												{
													OFFSET 0.000000 3.147345 0.000000
													CHANNELS 3 Zrotation Yrotation Xrotation
													End Site
													{
														OFFSET 0.000000 0.000000 0.000000
													}
												}
											}
										}
									}
									JOINT RightHandIndex1
									{
										OFFSET -0.086752 10.030893 2.345280
										CHANNELS 3 Zrotation Yrotation Xrotation
										JOINT RightHandIndex2
										{
											OFFSET -0.000000 4.061090 0.000000
											CHANNELS 3 Zrotation Yrotation Xrotation
											JOINT RightHandIndex3
											{
												OFFSET -0.000000 3.248873 0.000000
												CHANNELS 3 Zrotation Yrotation Xrotation
												JOINT RightHandIndex4
												{
													OFFSET 0.000000 2.639709 -0.000000
													CHANNELS 3 Zrotation Yrotation Xrotation
													End Site
													{
														OFFSET 0.000000 0.000000 0.000000
													}
												}
											}
										}
									}
									JOINT RightHandMiddle1
									{
										OFFSET 0.104102 9.502952 0.006768
										CHANNELS 3 Zrotation Yrotation Xrotation
										JOINT RightHandMiddle2
										{
											OFFSET 0.000000 4.568727 0.000000
											CHANNELS 3 Zrotation Yrotation Xrotation
											JOINT RightHandMiddle3
											{
												OFFSET 0.000000 3.654981 -0.000000
												CHANNELS 3 Zrotation Yrotation Xrotation
												JOINT RightHandMiddle4
												{
													OFFSET -0.000000 2.741236 -0.000000
													CHANNELS 3 Zrotation Yrotation Xrotation
													End Site
													{
														OFFSET 0.000000 0.000000 0.000000
													}
												}
											}
										}
									}
									JOINT RightHandRing1
									{
										OFFSET 0.086752 8.921708 -2.267442
										CHANNELS 3 Zrotation Yrotation Xrotation
										JOINT RightHandRing2
										{
											OFFSET -0.000000 4.061090 0.000000
											CHANNELS 3 Zrotation Yrotation Xrotation
											JOINT RightHandRing3
											{
												OFFSET 0.000000 3.654981 -0.000000
												CHANNELS 3 Zrotation Yrotation Xrotation
												JOINT RightHandRing4
												{
													OFFSET 0.000000 2.741236 -0.000000
													CHANNELS 3 Zrotation Yrotation Xrotation
													End Site
													{
														OFFSET 0.000000 0.000000 0.000000
													}
												}
											}
										}
									}
									JOINT RightHandPinky1
									{
										OFFSET -0.173504 7.976997 -4.467199
										CHANNELS 3 Zrotation Yrotation Xrotation
										JOINT RightHandPinky2
										{
											OFFSET 0.000000 3.350399 -0.000000
											CHANNELS 3 Zrotation Yrotation Xrotation
											JOINT RightHandPinky3
											{
												OFFSET -0.000000 2.842763 0.000000
												CHANNELS 3 Zrotation Yrotation Xrotation
												JOINT RightHandPinky4
												{
													OFFSET -0.000000 2.639709 0.000000
													CHANNELS 3 Zrotation Yrotation Xrotation
													End Site
													{
														OFFSET 0.000000 0.000000 0.000000
													}
												}
											}
										}
									}
									JOINT RightForeArmEnd
									{
										OFFSET 0.000000 0.000000 0.000000
										CHANNELS 3 Zrotation Yrotation Xrotation
										End Site
										{
											OFFSET 0.000000 0.000000 0.000000
										}
									}
								}
								JOINT RightArmEnd
								{
									OFFSET 0.000000 0.000000 0.000000
									CHANNELS 3 Zrotation Yrotation Xrotation
									End Site
									{
										OFFSET 0.000000 0.000000 0.000000
									}
								}
							}
						}
					}
					JOINT LeftShoulder
					{
						OFFSET 2.625389 11.175210 0.000000
						CHANNELS 3 Zrotation Yrotation Xrotation
						JOINT LeftArm
						{
							OFFSET 0.000000 10.813635 -0.000000
							CHANNELS 3 Zrotation Yrotation Xrotation
							JOINT LeftForeArm
							{
								OFFSET 0.000000 28.724781 0.000000
								CHANNELS 3 Zrotation Yrotation Xrotation
								JOINT LeftHand
								{
									OFFSET 0.644384 25.716167 -0.328871
									CHANNELS 3 Zrotation Yrotation Xrotation
									JOINT LeftHandThumb1
									{
										OFFSET 2.867323 3.959563 2.944291
										CHANNELS 3 Zrotation Yrotation Xrotation
										JOINT LeftHandThumb2
										{
											OFFSET 0.000000 3.350399 0.000000
											CHANNELS 3 Zrotation Yrotation Xrotation
											JOINT LeftHandThumb3
											{
												OFFSET -0.000000 3.756509 0.000000
												CHANNELS 3 Zrotation Yrotation Xrotation
												JOINT LeftHandThumb4
												{
													OFFSET -0.000000 3.100000 0.000000
													CHANNELS 3 Zrotation Yrotation Xrotation
													End Site
													{
														OFFSET 0.000000 0.000000 0.000000
													}
												}
											}
										}
									}
									JOINT LeftHandIndex1
									{
										OFFSET 0.086752 10.030893 2.345280
										CHANNELS 3 Zrotation Yrotation Xrotation
										JOINT LeftHandIndex2
										{
											OFFSET -0.000000 4.061090 -0.000000
											CHANNELS 3 Zrotation Yrotation Xrotation
											JOINT LeftHandIndex3
											{
												OFFSET 0.000000 3.248873 -0.000000
												CHANNELS 3 Zrotation Yrotation Xrotation
												JOINT LeftHandIndex4
												{
													OFFSET 0.000000 2.639709 -0.000000
													CHANNELS 3 Zrotation Yrotation Xrotation
													End Site
													{
														OFFSET 0.000000 0.000000 0.000000
													}
												}
											}
										}
									}
									JOINT LeftHandMiddle1
									{
										OFFSET -0.104102 9.502952 0.006768
										CHANNELS 3 Zrotation Yrotation Xrotation
										JOINT LeftHandMiddle2
										{
											OFFSET -0.000000 4.568727 -0.000000
											CHANNELS 3 Zrotation Yrotation Xrotation
											JOINT LeftHandMiddle3
											{
												OFFSET 0.000000 3.654981 0.000000
												CHANNELS 3 Zrotation Yrotation Xrotation
												JOINT LeftHandMiddle4
												{
													OFFSET 0.000000 2.741236 -0.000000
													CHANNELS 3 Zrotation Yrotation Xrotation
													End Site
													{
														OFFSET 0.000000 0.000000 0.000000
													}
												}
											}
										}
									}
									JOINT LeftHandRing1
									{
										OFFSET -0.086752 8.921708 -2.267442
										CHANNELS 3 Zrotation Yrotation Xrotation
										JOINT LeftHandRing2
										{
											OFFSET 0.000000 4.061090 0.000000
											CHANNELS 3 Zrotation Yrotation Xrotation
											JOINT LeftHandRing3
											{
												OFFSET 0.000000 3.654981 0.000000
												CHANNELS 3 Zrotation Yrotation Xrotation
												JOINT LeftHandRing4
												{
													OFFSET 0.000000 2.741236 0.000000
													CHANNELS 3 Zrotation Yrotation Xrotation
													End Site
													{
														OFFSET 0.000000 0.000000 0.000000
													}
												}
											}
										}
									}
									JOINT LeftHandPinky1
									{
										OFFSET 0.173504 7.976997 -4.467199
										CHANNELS 3 Zrotation Yrotation Xrotation
										JOINT LeftHandPinky2
										{
											OFFSET -0.000000 3.350399 -0.000000
											CHANNELS 3 Zrotation Yrotation Xrotation
											JOINT LeftHandPinky3
											{
												OFFSET 0.000000 2.842763 0.000000
												CHANNELS 3 Zrotation Yrotation Xrotation
												JOINT LeftHandPinky4
												{
													OFFSET -0.000000 2.639709 -0.000000
													CHANNELS 3 Zrotation Yrotation Xrotation
													End Site
													{
														OFFSET 0.000000 0.000000 0.000000
													}
												}
											}
										}
									}
									JOINT LeftForeArmEnd
									{
										OFFSET 0.000000 0.000000 0.000000
										CHANNELS 3 Zrotation Yrotation Xrotation
										End Site
										{
											OFFSET 0.000000 0.000000 0.000000
										}
									}
								}
								JOINT LeftArmEnd
								{
									OFFSET 0.000000 0.000000 0.000000
									CHANNELS 3 Zrotation Yrotation Xrotation
									End Site
									{
										OFFSET 0.000000 0.000000 0.000000
									}
								}
							}
						}
					}
				}
			}
		}
	}
	JOINT RightUpLeg
	{
		OFFSET -11.289943 0.000000 0.000000
		CHANNELS 3 Zrotation Yrotation Xrotation
		JOINT RightLeg
		{
			OFFSET 0.000000 -38.200325 0.000000
			CHANNELS 3 Zrotation Yrotation Xrotation
			JOINT RightFoot
			{
				OFFSET -0.000000 -39.900856 -0.000000
				CHANNELS 3 Zrotation Yrotation Xrotation
				JOINT RightToeBase
				{
					OFFSET 0.000000 0.000000 15.261641
					CHANNELS 3 Zrotation Yrotation Xrotation
					JOINT RightToeBaseEnd
					{
						OFFSET 0.000000 0.000000 7.370709
						CHANNELS 3 Zrotation Yrotation Xrotation
						End Site
						{
							OFFSET 0.000000 0.000000 0.000000
						}
					}
				}
				JOINT RightLegEnd
				{
					OFFSET 0.000000 0.000000 0.000000
					CHANNELS 3 Zrotation Yrotation Xrotation
					End Site
					{
						OFFSET 0.000000 0.000000 0.000000
					}
				}
			}
			JOINT RightUpLegEnd
			{
				OFFSET 0.000000 0.000000 0.000000
				CHANNELS 3 Zrotation Yrotation Xrotation
				End Site
				{
					OFFSET 0.000000 0.000000 0.000000
				}
			}
		}
	}
	JOINT LeftUpLeg
	{
		OFFSET 11.315661 -0.000000 0.000000
		CHANNELS 3 Zrotation Yrotation Xrotation
		JOINT LeftLeg
		{
			OFFSET -0.000000 -38.200325 -0.000000
			CHANNELS 3 Zrotation Yrotation Xrotation
			JOINT LeftFoot
			{
				OFFSET 0.000000 -39.900856 -0.000000
				CHANNELS 3 Zrotation Yrotation Xrotation
				JOINT LeftToeBase
				{
					OFFSET -0.000000 -0.000000 15.261641
					CHANNELS 3 Zrotation Yrotation Xrotation
					JOINT LeftToeBaseEnd
					{
						OFFSET 0.000000 -0.000000 7.539996
						CHANNELS 3 Zrotation Yrotation Xrotation
						End Site
						{
							OFFSET 0.000000 0.000000 0.000000
						}
					}
				}
				JOINT LeftLegEnd
				{
					OFFSET 0.000000 0.000000 0.000000
					CHANNELS 3 Zrotation Yrotation Xrotation
					End Site
					{
						OFFSET 0.000000 0.000000 0.000000
					}
				}
			}
			JOINT LeftUpLegEnd
			{
				OFFSET 0.000000 0.000000 0.000000
				CHANNELS 3 Zrotation Yrotation Xrotation
				End Site
				{
					OFFSET 0.000000 0.000000 0.000000
				}
			}
		}
	}
}
MOTION
Frames: 4
Frame Time: 0.016667
0.053599 88.859886 3.107447 0.490481 0.055862 -6.497332 0.023754 -0.000539 5.886370 -1.012250 0.067046 0.861970 0.478071 -2.416792 3.829567 0.155030 -0.780500 1.929224 2.330515 0.848112 5.016849 0.371683 2.117863 -3.221864 -0.714533 -0.852149 -18.222401 0.000000 0.000000 0.000000 92.418694 -0.394880 9.707912 65.456573 -33.431271 5.091406 -0.130291 12.440493 22.353239 6.882370 13.743960 -6.458578 10.637670 -1.840800 39.870983 0.000000 0.000000 -25.919998 0.000000 0.000000 -18.000004 0.000000 0.000000 0.000000 12.845482 -0.000000 -9.527125 8.991838 0.000000 0.000000 8.991838 0.000000 0.000000 0.000000 0.000000 0.000000 11.286146 -0.000000 -11.044980 7.900302 0.000000 0.000000 7.900302 0.000000 0.000000 0.000000 0.000000 0.000000 11.199185 0.000000 -11.348525 7.839428 0.000000 0.000000 7.839428 0.000000 0.000000 0.000000 0.000000 0.000000 10.416969 0.000000 -12.591636 7.291878 0.000000 0.000000 7.291878 0.000000 0.000000 0.000000 0.000000 0.000000 0.000000 0.000000 0.000000 0.000000 0.000000 0.000000 -90.370071 0.051974 5.208683 -71.842018 19.306828 -7.574249 -0.664994 -8.642401 40.885647 -0.139946 -25.486511 -15.477552 -11.236528 1.888869 39.607231 0.000000 0.000000 -27.360001 0.000000 0.000000 -18.999998 0.000000 0.000000 0.000000 -16.692022 0.000000 -11.498048 -11.684413 0.000000 0.000000 -11.684413 0.000000 0.000000 0.000000 0.000000 0.000000 -15.977510 0.000000 -11.317391 -11.184259 0.000000 0.000000 -11.184259 0.000000 0.000000 0.000000 0.000000 0.000000 -18.180992 -0.000000 -10.528083 -12.726697 0.000000 0.000000 -12.726697 0.000000 0.000000 0.000000 0.000000 0.000000 -19.065912 -0.000000 -9.698054 -13.346139 0.000000 0.000000 -13.346139 0.000000 0.000000 0.000000 0.000000 0.000000 0.000000 0.000000 0.000000 0.000000 0.000000 0.000000 -1.045058 -10.518975 11.869204 -0.078405 -0.635030 3.758801 -2.197730 -7.901679 18.681496 -0.890004 0.828132 -18.870453 0.000000 0.000000 0.000000 0.000000 0.000000 0.000000 0.000000 0.000000 0.000000 -1.784023 -6.543907 7.474547 0.053202 0.398207 7.545935 3.843466 -1.785134 17.966772 0.194973 -0.390531 -20.817129 0.000000 0.000000 0.000000 0.000000 0.000000 0.000000 0.000000 0.000000 0.000000 
0.081342 88.239227 3.019946 -0.210252 -0.223630 -7.899391 1.334447 -0.197737 6.807858 -1.146961 0.170572 2.650452 0.649720 -1.684077 2.826519 -0.733993 -0.285770 3.397042 2.339724 0.952734 2.943485 0.931300 2.319337 -3.673364 -0.719642 -1.086801 -17.788084 0.000000 0.000000 0.000000 91.945847 -0.538635 9.628428 66.391762 -31.448484 4.525537 -0.202864 13.736493 23.405479 6.826050 12.295658 -5.241541 10.336630 -1.808973 39.895035 -0.000000 0.000026 -25.334276 0.000011 0.000044 -17.413931 0.000000 -0.000003 -0.000020 12.118442 0.113578 -8.964450 8.531374 -0.016789 -0.229036 8.632358 0.010975 -0.223046 -0.000026 0.000028 -0.000023 10.871499 0.040584 -10.273266 7.757251 -0.014797 -0.073583 7.868009 0.003342 -0.065352 0.000019 0.000021 0.000014 10.734356 -0.099016 -10.415556 7.747695 0.051181 0.025576 7.770021 0.006438 0.021847 -0.000015 -0.000027 0.000010 10.068946 -0.281772 -11.963407 7.408826 0.143539 -0.020415 7.312685 0.049601 0.007817 0.000103 -0.000005 0.000008 0.000000 0.000000 0.000000 0.000000 0.000000 0.000000 -88.793221 0.145329 6.332805 -71.352081 19.363176 -5.499979 -1.245912 -10.440757 40.650375 -0.064241 -23.638496 -14.999754 -10.848173 1.811746 39.637009 0.000004 0.000019 -26.685823 -0.000027 -0.000026 -18.355503 -0.000180 0.000002 0.000029 -16.433943 0.154489 -9.638484 -11.202453 0.011011 0.290608 -11.524556 0.035971 0.254535 0.000011 0.000150 -0.000006 -15.792151 0.075021 -10.347726 -11.000485 -0.004294 0.108564 -10.814772 0.013622 0.096666 -0.000249 -0.000046 -0.000034 -17.590626 -0.053539 -10.697449 -12.223821 0.026424 -0.187579 -12.094521 -0.013991 -0.120403 0.000413 0.000011 0.000005 -18.232653 -0.241253 -11.488892 -12.700352 0.028782 -0.405725 -12.677490 -0.044241 -0.341962 -0.000175 -0.000012 -0.000033 0.000000 0.000000 0.000000 0.000000 0.000000 0.000000 -0.752036 -10.272555 12.059468 -0.022379 -0.629955 4.750181 -2.462718 -8.658910 19.091993 -0.863046 0.857575 -18.769732 0.000000 0.000000 0.000000 0.000000 0.000000 0.000000 0.000000 0.000000 0.000000 -1.371792 -5.737915 8.654551 0.051153 0.424634 6.982417 3.559172 -0.649447 18.534794 0.314052 -0.494401 -20.950722 0.000000 0.000000 0.000000 0.000000 0.000000 0.000000 0.000000 0.000000 0.000000 
0.078680 88.222862 2.992783 -0.194070 -0.270611 -7.977072 1.279741 -0.176251 6.841671 -1.069863 0.161471 2.720988 0.552565 -1.685954 2.865706 -0.710755 -0.307567 3.424175 2.464739 0.850715 3.093010 0.901751 2.254668 -3.551235 -0.738130 -1.076077 -17.855360 0.000000 0.000000 0.000000 91.973907 -0.533243 9.649337 66.326363 -31.399775 4.731010 -0.227706 13.742258 23.138231 6.857578 12.165384 -5.408276 10.304554 -1.804970 39.914074 -0.000002 0.000045 -25.230616 0.000015 0.000038 -17.353537 0.000012 0.000004 -0.000033 12.064140 0.117584 -8.883689 8.474290 -0.021584 -0.209496 8.567187 0.007133 -0.204068 -0.000005 0.000042 -0.000017 10.822755 0.041027 -10.219689 7.704473 -0.016940 -0.064290 7.804563 0.001192 -0.057261 0.000015 0.000013 0.000002 10.743964 -0.098703 -10.413918 7.696916 0.054058 0.011876 7.707694 0.009509 0.011804 -0.000021 -0.000042 -0.000003 10.118556 -0.283584 -12.020335 7.391582 0.151993 -0.048657 7.291357 0.055178 -0.015538 0.000123 0.000006 0.000004 0.000000 0.000000 0.000000 0.000000 0.000000 0.000000 -88.810242 0.132426 6.322766 -71.246696 19.506638 -5.351847 -1.197503 -10.169979 40.491642 0.103830 -23.562592 -15.455011 -10.821929 1.805073 39.651844 0.000016 0.000023 -26.609488 -0.000035 -0.000013 -18.300522 -0.000285 0.000013 -0.000007 -16.298573 0.160328 -9.716284 -11.150757 0.005384 0.260843 -11.461452 0.030685 0.224282 0.000025 0.000092 0.000003 -15.630751 0.076974 -10.456398 -10.936102 -0.006240 0.094418 -10.755360 0.011505 0.085469 -0.000253 -0.000040 -0.000053 -17.401516 -0.050972 -10.868781 -12.145528 0.029768 -0.168606 -12.022253 -0.011317 -0.107690 0.000475 0.000017 0.000011 -18.059458 -0.230482 -11.728841 -12.645947 0.038500 -0.346819 -12.630396 -0.036009 -0.298971 -0.000147 0.000008 -0.000051 0.000000 0.000000 0.000000 0.000000 0.000000 0.000000 -0.765841 -10.315875 12.069292 -0.021864 -0.628044 4.762714 -2.454213 -8.522248 19.068197 -0.849265 0.860447 -18.785709 0.000000 0.000000 0.000000 0.000000 0.000000 0.000000 0.000000 0.000000 0.000000 -1.325203 -5.620185 8.693523 0.049450 0.417483 6.941203 3.533211 -0.718115 18.569105 0.319632 -0.496235 -20.957676 0.000000 0.000000 0.000000 0.000000 0.000000 0.000000 0.000000 0.000000 0.000000 
0.078243 88.212639 2.972604 -0.180875 -0.328599 -8.049951 1.238672 -0.153469 6.877117 -1.010278 0.153127 2.780150 0.495396 -1.677052 2.908962 -0.678606 -0.321340 3.420973 2.507976 0.772774 3.183933 0.882518 2.187578 -3.478126 -0.738203 -1.068452 -17.913454 0.000000 0.000000 0.000000 92.013199 -0.521980 9.686951 66.281715 -31.252274 4.855828 -0.254388 13.798028 22.916126 6.876257 12.103949 -5.514585 10.299791 -1.805061 39.917145 0.000000 0.000045 -25.195799 0.000013 0.000040 -17.339798 0.000012 0.000004 -0.000033 12.029709 0.118791 -8.876309 8.420107 -0.024067 -0.197334 8.499815 0.005234 -0.192088 -0.000005 0.000042 -0.000018 10.794227 0.040701 -10.225026 7.649817 -0.018003 -0.058530 7.744867 -0.000031 -0.052161 0.000015 0.000016 0.000004 10.765723 -0.097680 -10.437528 7.652443 0.055198 0.004803 7.659418 0.011210 0.006681 -0.000019 -0.000024 -0.000002 10.153484 -0.281891 -12.059240 7.378662 0.154860 -0.058314 7.275689 0.056340 -0.023141 0.000134 0.000005 -0.000003 0.000000 0.000000 0.000000 0.000000 0.000000 0.000000 -88.817543 0.134922 6.320495 -71.228798 19.599617 -5.297700 -1.167010 -10.037662 40.342304 0.076574 -23.312592 -15.699431 -10.816501 1.804021 39.652966 0.000015 0.000023 -26.590628 -0.000039 -0.000014 -18.285124 -0.000388 0.000012 0.000018 -16.187016 0.161347 -9.735731 -11.075846 0.000742 0.238207 -11.378377 0.026630 0.200137 0.000023 0.000047 0.000003 -15.484367 0.077185 -10.510760 -10.854209 -0.008017 0.083621 -10.676871 0.009741 0.076482 -0.000263 -0.000041 -0.000068 -17.215134 -0.048071 -10.976657 -12.050321 0.032245 -0.154210 -11.931631 -0.009361 -0.097606 0.000457 0.000017 0.000011 -17.880219 -0.222240 -11.899206 -12.569321 0.045402 -0.304013 -12.557495 -0.030426 -0.265041 -0.000135 0.000008 -0.000052 0.000000 0.000000 0.000000 0.000000 0.000000 0.000000 -0.788511 -10.300300 12.076034 -0.021463 -0.625333 4.785144 -2.454638 -8.409839 19.065998 -0.840738 0.860248 -18.801521 0.000000 0.000000 0.000000 0.000000 0.000000 0.000000 0.000000 0.000000 0.000000 -1.306384 -5.508122 8.741995 0.047110 0.409347 6.905264 3.530591 -0.703512 18.591650 0.322591 -0.496232 -20.952974 0.000000 0.000000 0.000000 0.000000 0.000000 0.000000 0.000000 0.000000 0.000000 
